<mxfile host="app.diagrams.net" agent="Mozilla/5.0 (Windows NT 10.0; Win64; x64) AppleWebKit/537.36 (KHTML, like Gecko) Chrome/137.0.0.0 Safari/537.36" version="27.1.4">
  <diagram id="C5RBs43oDa-KdzZeNtuy" name="Page-1">
    <mxGraphModel dx="1209" dy="820" grid="1" gridSize="10" guides="1" tooltips="1" connect="1" arrows="1" fold="1" page="1" pageScale="1" pageWidth="827" pageHeight="1169" math="0" shadow="0">
      <root>
        <mxCell id="WIyWlLk6GJQsqaUBKTNV-0" />
        <mxCell id="WIyWlLk6GJQsqaUBKTNV-1" parent="WIyWlLk6GJQsqaUBKTNV-0" />
        <mxCell id="ImqcQIDYMGQ-14dCIgGm-0" value="cKhachHang" style="swimlane;fontStyle=2;align=center;verticalAlign=top;childLayout=stackLayout;horizontal=1;startSize=26;horizontalStack=0;resizeParent=1;resizeLast=0;collapsible=1;marginBottom=0;rounded=0;shadow=0;strokeWidth=1;" vertex="1" parent="WIyWlLk6GJQsqaUBKTNV-1">
          <mxGeometry x="810" y="500" width="400" height="190" as="geometry">
            <mxRectangle x="230" y="140" width="160" height="26" as="alternateBounds" />
          </mxGeometry>
        </mxCell>
        <mxCell id="ImqcQIDYMGQ-14dCIgGm-2" value="# Name: string" style="text;align=left;verticalAlign=top;spacingLeft=4;spacingRight=4;overflow=hidden;rotatable=0;points=[[0,0.5],[1,0.5]];portConstraint=eastwest;rounded=0;shadow=0;html=0;" vertex="1" parent="ImqcQIDYMGQ-14dCIgGm-0">
          <mxGeometry y="26" width="400" height="26" as="geometry" />
        </mxCell>
        <mxCell id="ImqcQIDYMGQ-14dCIgGm-4" value="# number: long long" style="text;align=left;verticalAlign=top;spacingLeft=4;spacingRight=4;overflow=hidden;rotatable=0;points=[[0,0.5],[1,0.5]];portConstraint=eastwest;rounded=0;shadow=0;html=0;" vertex="1" parent="ImqcQIDYMGQ-14dCIgGm-0">
          <mxGeometry y="52" width="400" height="26" as="geometry" />
        </mxCell>
        <mxCell id="ImqcQIDYMGQ-14dCIgGm-6" value="# money: double" style="text;align=left;verticalAlign=top;spacingLeft=4;spacingRight=4;overflow=hidden;rotatable=0;points=[[0,0.5],[1,0.5]];portConstraint=eastwest;rounded=0;shadow=0;html=0;" vertex="1" parent="ImqcQIDYMGQ-14dCIgGm-0">
          <mxGeometry y="78" width="400" height="26" as="geometry" />
        </mxCell>
        <mxCell id="ImqcQIDYMGQ-14dCIgGm-7" value="" style="line;html=1;strokeWidth=1;align=left;verticalAlign=middle;spacingTop=-1;spacingLeft=3;spacingRight=3;rotatable=0;labelPosition=right;points=[];portConstraint=eastwest;" vertex="1" parent="ImqcQIDYMGQ-14dCIgGm-0">
          <mxGeometry y="104" width="400" height="8" as="geometry" />
        </mxCell>
        <mxCell id="ImqcQIDYMGQ-14dCIgGm-8" value="+ bill(): double{abstract}" style="text;align=left;verticalAlign=top;spacingLeft=4;spacingRight=4;overflow=hidden;rotatable=0;points=[[0,0.5],[1,0.5]];portConstraint=eastwest;" vertex="1" parent="ImqcQIDYMGQ-14dCIgGm-0">
          <mxGeometry y="112" width="400" height="26" as="geometry" />
        </mxCell>
        <mxCell id="ImqcQIDYMGQ-14dCIgGm-9" value="+ doc(): void{virtual}" style="text;align=left;verticalAlign=top;spacingLeft=4;spacingRight=4;overflow=hidden;rotatable=0;points=[[0,0.5],[1,0.5]];portConstraint=eastwest;" vertex="1" parent="ImqcQIDYMGQ-14dCIgGm-0">
          <mxGeometry y="138" width="400" height="26" as="geometry" />
        </mxCell>
        <mxCell id="ImqcQIDYMGQ-14dCIgGm-10" value="+ xuat(): void{virtual}" style="text;align=left;verticalAlign=top;spacingLeft=4;spacingRight=4;overflow=hidden;rotatable=0;points=[[0,0.5],[1,0.5]];portConstraint=eastwest;" vertex="1" parent="ImqcQIDYMGQ-14dCIgGm-0">
          <mxGeometry y="164" width="400" height="26" as="geometry" />
        </mxCell>
        <mxCell id="ImqcQIDYMGQ-14dCIgGm-11" value="cB" style="swimlane;fontStyle=0;align=center;verticalAlign=top;childLayout=stackLayout;horizontal=1;startSize=26;horizontalStack=0;resizeParent=1;resizeLast=0;collapsible=1;marginBottom=0;rounded=0;shadow=0;strokeWidth=1;" vertex="1" parent="WIyWlLk6GJQsqaUBKTNV-1">
          <mxGeometry x="750" y="1050" width="160" height="138" as="geometry">
            <mxRectangle x="130" y="380" width="160" height="26" as="alternateBounds" />
          </mxGeometry>
        </mxCell>
        <mxCell id="ImqcQIDYMGQ-14dCIgGm-12" value="- year_friend: long long" style="text;align=left;verticalAlign=top;spacingLeft=4;spacingRight=4;overflow=hidden;rotatable=0;points=[[0,0.5],[1,0.5]];portConstraint=eastwest;" vertex="1" parent="ImqcQIDYMGQ-14dCIgGm-11">
          <mxGeometry y="26" width="160" height="26" as="geometry" />
        </mxCell>
        <mxCell id="ImqcQIDYMGQ-14dCIgGm-13" value="" style="line;html=1;strokeWidth=1;align=left;verticalAlign=middle;spacingTop=-1;spacingLeft=3;spacingRight=3;rotatable=0;labelPosition=right;points=[];portConstraint=eastwest;" vertex="1" parent="ImqcQIDYMGQ-14dCIgGm-11">
          <mxGeometry y="52" width="160" height="8" as="geometry" />
        </mxCell>
        <mxCell id="ImqcQIDYMGQ-14dCIgGm-14" value="+ doc(): void" style="text;align=left;verticalAlign=top;spacingLeft=4;spacingRight=4;overflow=hidden;rotatable=0;points=[[0,0.5],[1,0.5]];portConstraint=eastwest;" vertex="1" parent="ImqcQIDYMGQ-14dCIgGm-11">
          <mxGeometry y="60" width="160" height="26" as="geometry" />
        </mxCell>
        <mxCell id="ImqcQIDYMGQ-14dCIgGm-15" value="+ xuat(): void" style="text;align=left;verticalAlign=top;spacingLeft=4;spacingRight=4;overflow=hidden;rotatable=0;points=[[0,0.5],[1,0.5]];portConstraint=eastwest;" vertex="1" parent="ImqcQIDYMGQ-14dCIgGm-11">
          <mxGeometry y="86" width="160" height="26" as="geometry" />
        </mxCell>
        <mxCell id="ImqcQIDYMGQ-14dCIgGm-16" value="+ bill(): double" style="text;align=left;verticalAlign=top;spacingLeft=4;spacingRight=4;overflow=hidden;rotatable=0;points=[[0,0.5],[1,0.5]];portConstraint=eastwest;" vertex="1" parent="ImqcQIDYMGQ-14dCIgGm-11">
          <mxGeometry y="112" width="160" height="26" as="geometry" />
        </mxCell>
        <mxCell id="ImqcQIDYMGQ-14dCIgGm-18" value="cA" style="swimlane;fontStyle=0;align=center;verticalAlign=top;childLayout=stackLayout;horizontal=1;startSize=26;horizontalStack=0;resizeParent=1;resizeLast=0;collapsible=1;marginBottom=0;rounded=0;shadow=0;strokeWidth=1;" vertex="1" parent="WIyWlLk6GJQsqaUBKTNV-1">
          <mxGeometry x="1150" y="1050" width="160" height="140" as="geometry">
            <mxRectangle x="340" y="380" width="170" height="26" as="alternateBounds" />
          </mxGeometry>
        </mxCell>
        <mxCell id="ImqcQIDYMGQ-14dCIgGm-19" value="- Fix_bug: long long" style="text;align=left;verticalAlign=top;spacingLeft=4;spacingRight=4;overflow=hidden;rotatable=0;points=[[0,0.5],[1,0.5]];portConstraint=eastwest;" vertex="1" parent="ImqcQIDYMGQ-14dCIgGm-18">
          <mxGeometry y="26" width="160" height="26" as="geometry" />
        </mxCell>
        <mxCell id="ImqcQIDYMGQ-14dCIgGm-20" value="" style="line;html=1;strokeWidth=1;align=left;verticalAlign=middle;spacingTop=-1;spacingLeft=3;spacingRight=3;rotatable=0;labelPosition=right;points=[];portConstraint=eastwest;" vertex="1" parent="ImqcQIDYMGQ-14dCIgGm-18">
          <mxGeometry y="52" width="160" height="8" as="geometry" />
        </mxCell>
        <mxCell id="ImqcQIDYMGQ-14dCIgGm-22" value="+ xuat(): void" style="text;align=left;verticalAlign=top;spacingLeft=4;spacingRight=4;overflow=hidden;rotatable=0;points=[[0,0.5],[1,0.5]];portConstraint=eastwest;" vertex="1" parent="ImqcQIDYMGQ-14dCIgGm-18">
          <mxGeometry y="60" width="160" height="26" as="geometry" />
        </mxCell>
        <mxCell id="ImqcQIDYMGQ-14dCIgGm-45" value="+ bill(): double" style="text;align=left;verticalAlign=top;spacingLeft=4;spacingRight=4;overflow=hidden;rotatable=0;points=[[0,0.5],[1,0.5]];portConstraint=eastwest;" vertex="1" parent="ImqcQIDYMGQ-14dCIgGm-18">
          <mxGeometry y="86" width="160" height="26" as="geometry" />
        </mxCell>
        <mxCell id="ImqcQIDYMGQ-14dCIgGm-25" value="Manager" style="swimlane;fontStyle=0;align=center;verticalAlign=top;childLayout=stackLayout;horizontal=1;startSize=26;horizontalStack=0;resizeParent=1;resizeLast=0;collapsible=1;marginBottom=0;rounded=0;shadow=0;strokeWidth=1;" vertex="1" parent="WIyWlLk6GJQsqaUBKTNV-1">
          <mxGeometry x="1328" y="810" width="270" height="230" as="geometry">
            <mxRectangle x="550" y="140" width="160" height="26" as="alternateBounds" />
          </mxGeometry>
        </mxCell>
        <mxCell id="ImqcQIDYMGQ-14dCIgGm-60" value="- x: long long" style="text;align=left;verticalAlign=top;spacingLeft=4;spacingRight=4;overflow=hidden;rotatable=0;points=[[0,0.5],[1,0.5]];portConstraint=eastwest;" vertex="1" parent="ImqcQIDYMGQ-14dCIgGm-25">
          <mxGeometry y="26" width="270" height="26" as="geometry" />
        </mxCell>
        <mxCell id="ImqcQIDYMGQ-14dCIgGm-61" value="- y: long long" style="text;align=left;verticalAlign=top;spacingLeft=4;spacingRight=4;overflow=hidden;rotatable=0;points=[[0,0.5],[1,0.5]];portConstraint=eastwest;" vertex="1" parent="ImqcQIDYMGQ-14dCIgGm-25">
          <mxGeometry y="52" width="270" height="26" as="geometry" />
        </mxCell>
        <mxCell id="ImqcQIDYMGQ-14dCIgGm-62" value="- z: long long" style="text;align=left;verticalAlign=top;spacingLeft=4;spacingRight=4;overflow=hidden;rotatable=0;points=[[0,0.5],[1,0.5]];portConstraint=eastwest;" vertex="1" parent="ImqcQIDYMGQ-14dCIgGm-25">
          <mxGeometry y="78" width="270" height="26" as="geometry" />
        </mxCell>
        <mxCell id="ImqcQIDYMGQ-14dCIgGm-27" value="- Admin: vector&lt;bg&gt;" style="text;align=left;verticalAlign=top;spacingLeft=4;spacingRight=4;overflow=hidden;rotatable=0;points=[[0,0.5],[1,0.5]];portConstraint=eastwest;rounded=0;shadow=0;html=0;" vertex="1" parent="ImqcQIDYMGQ-14dCIgGm-25">
          <mxGeometry y="104" width="270" height="26" as="geometry" />
        </mxCell>
        <mxCell id="ImqcQIDYMGQ-14dCIgGm-28" value="" style="line;html=1;strokeWidth=1;align=left;verticalAlign=middle;spacingTop=-1;spacingLeft=3;spacingRight=3;rotatable=0;labelPosition=right;points=[];portConstraint=eastwest;" vertex="1" parent="ImqcQIDYMGQ-14dCIgGm-25">
          <mxGeometry y="130" width="270" height="8" as="geometry" />
        </mxCell>
        <mxCell id="ImqcQIDYMGQ-14dCIgGm-30" value="+ In(): void" style="text;align=left;verticalAlign=top;spacingLeft=4;spacingRight=4;overflow=hidden;rotatable=0;points=[[0,0.5],[1,0.5]];portConstraint=eastwest;" vertex="1" parent="ImqcQIDYMGQ-14dCIgGm-25">
          <mxGeometry y="138" width="270" height="26" as="geometry" />
        </mxCell>
        <mxCell id="ImqcQIDYMGQ-14dCIgGm-31" value="+ Out(): void" style="text;align=left;verticalAlign=top;spacingLeft=4;spacingRight=4;overflow=hidden;rotatable=0;points=[[0,0.5],[1,0.5]];portConstraint=eastwest;" vertex="1" parent="ImqcQIDYMGQ-14dCIgGm-25">
          <mxGeometry y="164" width="270" height="26" as="geometry" />
        </mxCell>
        <mxCell id="ImqcQIDYMGQ-14dCIgGm-32" value="+ Total(): double" style="text;align=left;verticalAlign=top;spacingLeft=4;spacingRight=4;overflow=hidden;rotatable=0;points=[[0,0.5],[1,0.5]];portConstraint=eastwest;" vertex="1" parent="ImqcQIDYMGQ-14dCIgGm-25">
          <mxGeometry y="190" width="270" height="26" as="geometry" />
        </mxCell>
        <mxCell id="ImqcQIDYMGQ-14dCIgGm-38" value="bg" style="swimlane;fontStyle=0;childLayout=stackLayout;horizontal=1;startSize=30;horizontalStack=0;resizeParent=1;resizeParentMax=0;resizeLast=0;collapsible=1;marginBottom=0;whiteSpace=wrap;html=1;" vertex="1" parent="WIyWlLk6GJQsqaUBKTNV-1">
          <mxGeometry x="1310" y="500" width="140" height="90" as="geometry" />
        </mxCell>
        <mxCell id="ImqcQIDYMGQ-14dCIgGm-39" value="+ mem: cNhanVien*" style="text;strokeColor=none;fillColor=none;align=left;verticalAlign=middle;spacingLeft=4;spacingRight=4;overflow=hidden;points=[[0,0.5],[1,0.5]];portConstraint=eastwest;rotatable=0;whiteSpace=wrap;html=1;" vertex="1" parent="ImqcQIDYMGQ-14dCIgGm-38">
          <mxGeometry y="30" width="140" height="30" as="geometry" />
        </mxCell>
        <mxCell id="ImqcQIDYMGQ-14dCIgGm-40" value="+ x: long long" style="text;strokeColor=none;fillColor=none;align=left;verticalAlign=middle;spacingLeft=4;spacingRight=4;overflow=hidden;points=[[0,0.5],[1,0.5]];portConstraint=eastwest;rotatable=0;whiteSpace=wrap;html=1;" vertex="1" parent="ImqcQIDYMGQ-14dCIgGm-38">
          <mxGeometry y="60" width="140" height="30" as="geometry" />
        </mxCell>
        <mxCell id="ImqcQIDYMGQ-14dCIgGm-41" value="" style="endArrow=open;endSize=12;dashed=1;html=1;rounded=0;exitX=1;exitY=0.5;exitDx=0;exitDy=0;entryX=1;entryY=0.5;entryDx=0;entryDy=0;edgeStyle=orthogonalEdgeStyle;" edge="1" parent="WIyWlLk6GJQsqaUBKTNV-1" source="ImqcQIDYMGQ-14dCIgGm-39" target="ImqcQIDYMGQ-14dCIgGm-30">
          <mxGeometry width="160" relative="1" as="geometry">
            <mxPoint x="1070" y="660" as="sourcePoint" />
            <mxPoint x="1488" y="900.9999999999998" as="targetPoint" />
          </mxGeometry>
        </mxCell>
        <mxCell id="ImqcQIDYMGQ-14dCIgGm-42" value="" style="endArrow=open;shadow=0;strokeWidth=1;rounded=0;curved=0;endFill=1;edgeStyle=elbowEdgeStyle;elbow=vertical;entryX=0.5;entryY=0;entryDx=0;entryDy=0;exitX=1;exitY=0.5;exitDx=0;exitDy=0;" edge="1" parent="WIyWlLk6GJQsqaUBKTNV-1" target="ImqcQIDYMGQ-14dCIgGm-25">
          <mxGeometry x="0.5" y="41" relative="1" as="geometry">
            <mxPoint x="1210" y="591" as="sourcePoint" />
            <mxPoint x="1493" y="768" as="targetPoint" />
            <mxPoint x="-40" y="32" as="offset" />
            <Array as="points">
              <mxPoint x="1370" y="650" />
            </Array>
          </mxGeometry>
        </mxCell>
        <mxCell id="ImqcQIDYMGQ-14dCIgGm-43" value="0..1" style="resizable=0;align=left;verticalAlign=bottom;labelBackgroundColor=none;fontSize=12;" connectable="0" vertex="1" parent="ImqcQIDYMGQ-14dCIgGm-42">
          <mxGeometry x="-1" relative="1" as="geometry">
            <mxPoint y="4" as="offset" />
          </mxGeometry>
        </mxCell>
        <mxCell id="ImqcQIDYMGQ-14dCIgGm-44" value="1" style="resizable=0;align=right;verticalAlign=bottom;labelBackgroundColor=none;fontSize=12;" connectable="0" vertex="1" parent="ImqcQIDYMGQ-14dCIgGm-42">
          <mxGeometry x="1" relative="1" as="geometry">
            <mxPoint x="-7" y="4" as="offset" />
          </mxGeometry>
        </mxCell>
        <mxCell id="ImqcQIDYMGQ-14dCIgGm-46" value="cC" style="swimlane;fontStyle=0;childLayout=stackLayout;horizontal=1;startSize=30;horizontalStack=0;resizeParent=1;resizeParentMax=0;resizeLast=0;collapsible=1;marginBottom=0;whiteSpace=wrap;html=1;" vertex="1" parent="WIyWlLk6GJQsqaUBKTNV-1">
          <mxGeometry x="520" y="1050" width="140" height="82" as="geometry" />
        </mxCell>
        <mxCell id="ImqcQIDYMGQ-14dCIgGm-51" value="+ xuat(): void" style="text;align=left;verticalAlign=top;spacingLeft=4;spacingRight=4;overflow=hidden;rotatable=0;points=[[0,0.5],[1,0.5]];portConstraint=eastwest;" vertex="1" parent="ImqcQIDYMGQ-14dCIgGm-46">
          <mxGeometry y="30" width="140" height="26" as="geometry" />
        </mxCell>
        <mxCell id="ImqcQIDYMGQ-14dCIgGm-50" value="+ bill(): double" style="text;align=left;verticalAlign=top;spacingLeft=4;spacingRight=4;overflow=hidden;rotatable=0;points=[[0,0.5],[1,0.5]];portConstraint=eastwest;" vertex="1" parent="ImqcQIDYMGQ-14dCIgGm-46">
          <mxGeometry y="56" width="140" height="26" as="geometry" />
        </mxCell>
        <mxCell id="ImqcQIDYMGQ-14dCIgGm-52" value="" style="endArrow=block;endSize=16;endFill=0;html=1;rounded=0;exitX=0.5;exitY=0;exitDx=0;exitDy=0;edgeStyle=orthogonalEdgeStyle;entryX=0.503;entryY=1.013;entryDx=0;entryDy=0;entryPerimeter=0;" edge="1" parent="WIyWlLk6GJQsqaUBKTNV-1" source="ImqcQIDYMGQ-14dCIgGm-46" target="ImqcQIDYMGQ-14dCIgGm-10">
          <mxGeometry width="160" relative="1" as="geometry">
            <mxPoint x="840" y="1020" as="sourcePoint" />
            <mxPoint x="1010" y="700" as="targetPoint" />
            <Array as="points">
              <mxPoint x="590" y="876" />
              <mxPoint x="1011" y="876" />
            </Array>
          </mxGeometry>
        </mxCell>
        <mxCell id="ImqcQIDYMGQ-14dCIgGm-57" value="" style="endArrow=block;endSize=16;endFill=0;html=1;rounded=0;exitX=0.5;exitY=0;exitDx=0;exitDy=0;entryX=0.511;entryY=0.908;entryDx=0;entryDy=0;entryPerimeter=0;edgeStyle=orthogonalEdgeStyle;" edge="1" parent="WIyWlLk6GJQsqaUBKTNV-1" source="ImqcQIDYMGQ-14dCIgGm-11">
          <mxGeometry width="160" relative="1" as="geometry">
            <mxPoint x="856.96" y="1052.4" as="sourcePoint" />
            <mxPoint x="1041.3600000000001" y="690.0079999999999" as="targetPoint" />
          </mxGeometry>
        </mxCell>
        <mxCell id="ImqcQIDYMGQ-14dCIgGm-58" value="" style="endArrow=block;endSize=16;endFill=0;html=1;rounded=0;exitX=0.5;exitY=0;exitDx=0;exitDy=0;entryX=0.675;entryY=0.949;entryDx=0;entryDy=0;entryPerimeter=0;" edge="1" parent="WIyWlLk6GJQsqaUBKTNV-1" source="ImqcQIDYMGQ-14dCIgGm-18" target="ImqcQIDYMGQ-14dCIgGm-10">
          <mxGeometry width="160" relative="1" as="geometry">
            <mxPoint x="940" y="910" as="sourcePoint" />
            <mxPoint x="1100" y="910" as="targetPoint" />
            <Array as="points">
              <mxPoint x="1080" y="1050" />
            </Array>
          </mxGeometry>
        </mxCell>
      </root>
    </mxGraphModel>
  </diagram>
</mxfile>
